<svg width="17" height="26" viewBox="0 0 17 26" fill="none" xmlns="http://www.w3.org/2000/svg">
<path d="M0.665039 7.2998H16.335C16.5365 7.29986 16.7001 7.46346 16.7002 7.66504V25.335C16.7001 25.5365 16.5365 25.7001 16.335 25.7002H0.665039C0.463457 25.7001 0.299858 25.5365 0.299805 25.335V7.66504C0.299858 7.46346 0.463458 7.29986 0.665039 7.2998Z" stroke="black" stroke-width="0.6"/>
<path d="M1.68652 8.2998H15.3145C15.5203 8.2998 15.6857 8.47005 15.6797 8.67578L15.2842 22.0547C15.257 22.9711 14.5057 23.7002 13.5889 23.7002H3.44531C2.53025 23.7 1.78031 22.9732 1.75098 22.0586L1.32227 8.67676C1.3157 8.47074 1.48043 8.29996 1.68652 8.2998Z" stroke="black" stroke-width="0.6"/>
<rect x="3.3" y="0.3" width="10.4" height="3.4" rx="0.365138" stroke="black" stroke-width="0.6"/>
<mask id="path-4-inside-1_1232_180763" fill="white">
<rect x="5" y="4" width="7" height="2" rx="0.53211"/>
</mask>
<rect x="5" y="4" width="7" height="2" rx="0.53211" stroke="black" stroke-width="1.2" mask="url(#path-4-inside-1_1232_180763)"/>
<mask id="path-5-outside-2_1232_180763" maskUnits="userSpaceOnUse" x="3" y="10.9395" width="11" height="10" fill="black">
<rect fill="white" x="3" y="10.9395" width="11" height="10"/>
<path d="M4.64105 11.6484H4.96331L8.62542 15.6621L12.2817 11.6484H12.6274L13.3305 19.9395H12.27L11.7368 13.6992L8.63714 17.1328H8.51995L5.51409 13.752L5.04534 19.9395H3.99652L4.64105 11.6484Z"/>
</mask>
<path d="M4.64105 11.6484H4.96331L8.62542 15.6621L12.2817 11.6484H12.6274L13.3305 19.9395H12.27L11.7368 13.6992L8.63714 17.1328H8.51995L5.51409 13.752L5.04534 19.9395H3.99652L4.64105 11.6484Z" fill="black"/>
<path d="M4.64105 11.6484V11.3159H4.33333L4.30948 11.6227L4.64105 11.6484ZM4.96331 11.6484L5.20899 11.4243L5.11007 11.3159H4.96331V11.6484ZM8.62542 15.6621L8.37975 15.8863L8.62562 16.1557L8.87128 15.8861L8.62542 15.6621ZM12.2817 11.6484V11.3159H12.1348L12.0358 11.4245L12.2817 11.6484ZM12.6274 11.6484L12.9588 11.6203L12.9329 11.3159H12.6274V11.6484ZM13.3305 19.9395V20.272H13.6925L13.6619 19.9114L13.3305 19.9395ZM12.27 19.9395L11.9386 19.9678L11.9646 20.272H12.27V19.9395ZM11.7368 13.6992L12.0681 13.6709L12.0029 12.9081L11.4899 13.4764L11.7368 13.6992ZM8.63714 17.1328V17.4654H8.78495L8.884 17.3557L8.63714 17.1328ZM8.51995 17.1328L8.27141 17.3538L8.37063 17.4654H8.51995V17.1328ZM5.51409 13.752L5.76264 13.531L5.2417 12.9451L5.18248 13.7268L5.51409 13.752ZM5.04534 19.9395V20.272H5.35367L5.37696 19.9646L5.04534 19.9395ZM3.99652 19.9395L3.66495 19.9137L3.63709 20.272H3.99652V19.9395ZM4.64105 11.6484V11.981H4.96331V11.6484V11.3159H4.64105V11.6484ZM4.96331 11.6484L4.71764 11.8726L8.37975 15.8863L8.62542 15.6621L8.8711 15.438L5.20899 11.4243L4.96331 11.6484ZM8.62542 15.6621L8.87128 15.8861L12.5275 11.8724L12.2817 11.6484L12.0358 11.4245L8.37957 15.4381L8.62542 15.6621ZM12.2817 11.6484V11.981H12.6274V11.6484V11.3159H12.2817V11.6484ZM12.6274 11.6484L12.296 11.6765L12.9991 19.9676L13.3305 19.9395L13.6619 19.9114L12.9588 11.6203L12.6274 11.6484ZM13.3305 19.9395V19.6069H12.27V19.9395V20.272H13.3305V19.9395ZM12.27 19.9395L12.6013 19.9111L12.0681 13.6709L11.7368 13.6992L11.4054 13.7275L11.9386 19.9678L12.27 19.9395ZM11.7368 13.6992L11.4899 13.4764L8.39028 16.91L8.63714 17.1328L8.884 17.3557L11.9836 13.9221L11.7368 13.6992ZM8.63714 17.1328V16.8002H8.51995V17.1328V17.4654H8.63714V17.1328ZM8.51995 17.1328L8.76849 16.9118L5.76264 13.531L5.51409 13.752L5.26555 13.9729L8.27141 17.3538L8.51995 17.1328ZM5.51409 13.752L5.18248 13.7268L4.71373 19.9143L5.04534 19.9395L5.37696 19.9646L5.84571 13.7771L5.51409 13.752ZM5.04534 19.9395V19.6069H3.99652V19.9395V20.272H5.04534V19.9395ZM3.99652 19.9395L4.32808 19.9652L4.97262 11.6742L4.64105 11.6484L4.30948 11.6227L3.66495 19.9137L3.99652 19.9395Z" fill="black" mask="url(#path-5-outside-2_1232_180763)"/>
</svg>
