<svg width="116" height="32" viewBox="0 0 116 32" fill="none" xmlns="http://www.w3.org/2000/svg">
<mask id="path-1-outside-1_1232_180779" maskUnits="userSpaceOnUse" x="8" y="9.81128" width="100" height="13" fill="black">
<rect fill="white" x="8" y="9.81128" width="100" height="13"/>
<path d="M9.45312 19.3191C10.4219 19.9441 11.4062 20.3556 12.4062 20.5535C12.7448 20.6212 13.0885 20.655 13.4375 20.655C13.7865 20.655 14.1458 20.6238 14.5156 20.5613C14.8906 20.4936 15.2214 20.3842 15.5078 20.2332C16.1536 19.8894 16.4766 19.3608 16.4766 18.6472C16.4766 17.9128 15.9349 17.3998 14.8516 17.1082C14.5339 17.0248 14.1953 16.9493 13.8359 16.8816L12.7188 16.6863C11.2969 16.4415 10.3047 16.0821 9.74219 15.6082C9.22135 15.1759 8.96094 14.5925 8.96094 13.8582C8.96094 12.8582 9.4401 12.0483 10.3984 11.4285C11.2526 10.8712 12.2604 10.5925 13.4219 10.5925C14.5365 10.5925 15.5391 10.7748 16.4297 11.1394C16.7474 11.2644 17.0781 11.4207 17.4219 11.6082L16.8906 12.8816C16.1354 12.4285 15.2448 12.1342 14.2188 11.9988C13.8958 11.9519 13.5833 11.9285 13.2812 11.9285C12.5885 11.9285 11.9766 12.0613 11.4453 12.3269C10.8255 12.6394 10.5156 13.0717 10.5156 13.6238C10.5156 14.2071 10.9089 14.6342 11.6953 14.905C12.0495 15.03 12.4505 15.1316 12.8984 15.2097L14.2891 15.4519C15.4609 15.6707 16.2734 15.9181 16.7266 16.1941C17.1797 16.4701 17.513 16.78 17.7266 17.1238C17.9453 17.4623 18.0547 17.9154 18.0547 18.4832C18.0547 19.0457 17.9219 19.5509 17.6562 19.9988C17.3906 20.4467 17.0365 20.8165 16.5938 21.1082C15.7292 21.6863 14.6276 21.9753 13.2891 21.9753C12.0391 21.9753 10.8646 21.7045 9.76562 21.1628C9.40625 20.9858 9.07292 20.7826 8.76562 20.5535L9.45312 19.3191ZM38.8047 10.7488H47.0625V12.0613H40.25V15.0457H46.3203V16.3582H40.25V20.4988H47.2188V21.8113H38.8047V10.7488ZM59.1875 14.155C59.1875 15.7957 58.4323 16.9285 56.9219 17.5535L59.0234 21.8113H57.3438L55.4453 17.9597C54.9297 18.0378 54.3906 18.0769 53.8281 18.0769H50.9531V21.8113H49.5078V10.7488H54.0469C55.6823 10.7488 56.9036 10.9727 57.7109 11.4207C58.6953 11.9623 59.1875 12.8738 59.1875 14.155ZM54.0234 16.7644C55.1901 16.7644 56.0547 16.6029 56.6172 16.28C57.3099 15.879 57.6562 15.2019 57.6562 14.2488C57.6562 13.0092 56.8542 12.3061 55.25 12.1394C54.7865 12.0873 54.3099 12.0613 53.8203 12.0613H50.9531V16.7644H54.0234ZM61.6172 10.7488H69.0938V12.0613H63.0625V16.7644H68.5078V18.0769H63.0625V21.8113H61.6172V10.7488ZM71.125 10.7488H72.5703V16.4753C72.5703 18.4858 73.2396 19.7852 74.5781 20.3738C75.0365 20.5717 75.5781 20.6707 76.2031 20.6707C76.8281 20.6707 77.3594 20.5795 77.7969 20.3972C78.2396 20.2149 78.6042 19.9519 78.8906 19.6082C79.4479 18.9467 79.7266 17.9806 79.7266 16.7097V10.7488H81.1719V16.4753C81.1719 19.1264 80.2161 20.8321 78.3047 21.5925C77.6693 21.8425 76.9349 21.9675 76.1016 21.9675C75.2682 21.9675 74.5417 21.8477 73.9219 21.6082C73.3073 21.3634 72.7943 21.0144 72.3828 20.5613C71.5443 19.6446 71.125 18.3608 71.125 16.7097V10.7488ZM84.6094 10.7566H85.0391L89.9219 16.1082L94.7969 10.7566H95.2578L96.1953 21.8113H94.7812L94.0703 13.491L89.9375 18.0691H89.7812L85.7734 13.5613L85.1484 21.8113H83.75L84.6094 10.7566ZM99.0234 10.7488H107.281V12.0613H100.469V15.0457H106.539V16.3582H100.469V20.4988H107.438V21.8113H99.0234V10.7488Z"/>
</mask>
<path d="M9.45312 19.3191C10.4219 19.9441 11.4062 20.3556 12.4062 20.5535C12.7448 20.6212 13.0885 20.655 13.4375 20.655C13.7865 20.655 14.1458 20.6238 14.5156 20.5613C14.8906 20.4936 15.2214 20.3842 15.5078 20.2332C16.1536 19.8894 16.4766 19.3608 16.4766 18.6472C16.4766 17.9128 15.9349 17.3998 14.8516 17.1082C14.5339 17.0248 14.1953 16.9493 13.8359 16.8816L12.7188 16.6863C11.2969 16.4415 10.3047 16.0821 9.74219 15.6082C9.22135 15.1759 8.96094 14.5925 8.96094 13.8582C8.96094 12.8582 9.4401 12.0483 10.3984 11.4285C11.2526 10.8712 12.2604 10.5925 13.4219 10.5925C14.5365 10.5925 15.5391 10.7748 16.4297 11.1394C16.7474 11.2644 17.0781 11.4207 17.4219 11.6082L16.8906 12.8816C16.1354 12.4285 15.2448 12.1342 14.2188 11.9988C13.8958 11.9519 13.5833 11.9285 13.2812 11.9285C12.5885 11.9285 11.9766 12.0613 11.4453 12.3269C10.8255 12.6394 10.5156 13.0717 10.5156 13.6238C10.5156 14.2071 10.9089 14.6342 11.6953 14.905C12.0495 15.03 12.4505 15.1316 12.8984 15.2097L14.2891 15.4519C15.4609 15.6707 16.2734 15.9181 16.7266 16.1941C17.1797 16.4701 17.513 16.78 17.7266 17.1238C17.9453 17.4623 18.0547 17.9154 18.0547 18.4832C18.0547 19.0457 17.9219 19.5509 17.6562 19.9988C17.3906 20.4467 17.0365 20.8165 16.5938 21.1082C15.7292 21.6863 14.6276 21.9753 13.2891 21.9753C12.0391 21.9753 10.8646 21.7045 9.76562 21.1628C9.40625 20.9858 9.07292 20.7826 8.76562 20.5535L9.45312 19.3191ZM38.8047 10.7488H47.0625V12.0613H40.25V15.0457H46.3203V16.3582H40.25V20.4988H47.2188V21.8113H38.8047V10.7488ZM59.1875 14.155C59.1875 15.7957 58.4323 16.9285 56.9219 17.5535L59.0234 21.8113H57.3438L55.4453 17.9597C54.9297 18.0378 54.3906 18.0769 53.8281 18.0769H50.9531V21.8113H49.5078V10.7488H54.0469C55.6823 10.7488 56.9036 10.9727 57.7109 11.4207C58.6953 11.9623 59.1875 12.8738 59.1875 14.155ZM54.0234 16.7644C55.1901 16.7644 56.0547 16.6029 56.6172 16.28C57.3099 15.879 57.6562 15.2019 57.6562 14.2488C57.6562 13.0092 56.8542 12.3061 55.25 12.1394C54.7865 12.0873 54.3099 12.0613 53.8203 12.0613H50.9531V16.7644H54.0234ZM61.6172 10.7488H69.0938V12.0613H63.0625V16.7644H68.5078V18.0769H63.0625V21.8113H61.6172V10.7488ZM71.125 10.7488H72.5703V16.4753C72.5703 18.4858 73.2396 19.7852 74.5781 20.3738C75.0365 20.5717 75.5781 20.6707 76.2031 20.6707C76.8281 20.6707 77.3594 20.5795 77.7969 20.3972C78.2396 20.2149 78.6042 19.9519 78.8906 19.6082C79.4479 18.9467 79.7266 17.9806 79.7266 16.7097V10.7488H81.1719V16.4753C81.1719 19.1264 80.2161 20.8321 78.3047 21.5925C77.6693 21.8425 76.9349 21.9675 76.1016 21.9675C75.2682 21.9675 74.5417 21.8477 73.9219 21.6082C73.3073 21.3634 72.7943 21.0144 72.3828 20.5613C71.5443 19.6446 71.125 18.3608 71.125 16.7097V10.7488ZM84.6094 10.7566H85.0391L89.9219 16.1082L94.7969 10.7566H95.2578L96.1953 21.8113H94.7812L94.0703 13.491L89.9375 18.0691H89.7812L85.7734 13.5613L85.1484 21.8113H83.75L84.6094 10.7566ZM99.0234 10.7488H107.281V12.0613H100.469V15.0457H106.539V16.3582H100.469V20.4988H107.438V21.8113H99.0234V10.7488Z" fill="black"/>
<path d="M9.45312 19.3191L9.5613 19.1514L9.3824 19.036L9.2788 19.222L9.45312 19.3191ZM12.4062 20.5535L12.4454 20.3578L12.445 20.3577L12.4062 20.5535ZM14.5156 20.5613L14.5489 20.758L14.5511 20.7576L14.5156 20.5613ZM15.5078 20.2332L15.6009 20.4097L15.6016 20.4093L15.5078 20.2332ZM14.8516 17.1082L14.9034 16.9155L14.9022 16.9151L14.8516 17.1082ZM13.8359 16.8816L13.8729 16.6855L13.8703 16.685L13.8359 16.8816ZM12.7188 16.6863L12.7531 16.4897L12.7526 16.4896L12.7188 16.6863ZM9.74219 15.6082L9.87077 15.4556L9.86963 15.4546L9.74219 15.6082ZM10.3984 11.4285L10.5068 11.596L10.5075 11.5956L10.3984 11.4285ZM16.4297 11.1394L16.3541 11.3241L16.3566 11.3251L16.4297 11.1394ZM17.4219 11.6082L17.606 11.685L17.6753 11.5191L17.5174 11.433L17.4219 11.6082ZM16.8906 12.8816L16.788 13.0527L16.9859 13.1715L17.0748 12.9584L16.8906 12.8816ZM14.2188 11.9988L14.1901 12.1963L14.1926 12.1966L14.2188 11.9988ZM11.4453 12.3269L11.3561 12.1484L11.3555 12.1487L11.4453 12.3269ZM11.6953 14.905L11.7617 14.7169L11.7603 14.7164L11.6953 14.905ZM12.8984 15.2097L12.8642 15.4063L12.8642 15.4063L12.8984 15.2097ZM14.2891 15.4519L14.3257 15.2557L14.3233 15.2553L14.2891 15.4519ZM17.7266 17.1238L17.557 17.2291L17.559 17.2321L17.7266 17.1238ZM17.6562 19.9988L17.4846 19.897L17.4846 19.897L17.6562 19.9988ZM16.5938 21.1082L16.484 20.9415L16.4828 20.9423L16.5938 21.1082ZM9.76562 21.1628L9.85384 20.9839L9.85382 20.9839L9.76562 21.1628ZM8.76562 20.5535L8.5913 20.4564L8.5063 20.609L8.64633 20.7134L8.76562 20.5535ZM9.45312 19.3191L9.34495 19.4868C10.3321 20.1236 11.3398 20.5458 12.3675 20.7492L12.4062 20.5535L12.445 20.3577C11.4727 20.1653 10.5116 19.7645 9.5613 19.1514L9.45312 19.3191ZM12.4062 20.5535L12.3671 20.7491C12.7187 20.8194 13.0755 20.8546 13.4375 20.8546V20.655V20.4555C13.1015 20.4555 12.7709 20.4229 12.4454 20.3578L12.4062 20.5535ZM13.4375 20.655V20.8546C13.7984 20.8546 14.1689 20.8223 14.5489 20.758L14.5156 20.5613L14.4824 20.3645C14.1228 20.4253 13.7745 20.4555 13.4375 20.4555V20.655ZM14.5156 20.5613L14.5511 20.7576C14.9427 20.6869 15.2935 20.5717 15.6009 20.4097L15.5078 20.2332L15.4147 20.0566C15.1492 20.1966 14.8385 20.3002 14.4802 20.3649L14.5156 20.5613ZM15.5078 20.2332L15.6016 20.4093C15.9502 20.2237 16.2215 19.9828 16.4047 19.6829C16.588 19.3827 16.6761 19.035 16.6761 18.6472H16.4766H16.277C16.277 18.973 16.2037 19.2464 16.0641 19.4748C15.9244 19.7036 15.7112 19.8988 15.4141 20.057L15.5078 20.2332ZM16.4766 18.6472H16.6761C16.6761 18.2242 16.5174 17.8603 16.2075 17.5668C15.9035 17.2789 15.4623 17.0659 14.9034 16.9155L14.8516 17.1082L14.7997 17.3008C15.3242 17.442 15.6954 17.6314 15.9331 17.8565C16.1649 18.0761 16.277 18.3358 16.277 18.6472H16.4766ZM14.8516 17.1082L14.9022 16.9151C14.5795 16.8305 14.2363 16.754 13.8729 16.6855L13.8359 16.8816L13.799 17.0777C14.1543 17.1446 14.4882 17.2191 14.8009 17.3012L14.8516 17.1082ZM13.8359 16.8816L13.8703 16.685L12.7531 16.4897L12.7188 16.6863L12.6844 16.8828L13.8016 17.0782L13.8359 16.8816ZM12.7188 16.6863L12.7526 16.4896C11.338 16.2461 10.3907 15.8936 9.87076 15.4556L9.74219 15.6082L9.61361 15.7607C10.2187 16.2706 11.2558 16.6369 12.6849 16.8829L12.7188 16.6863ZM9.74219 15.6082L9.86963 15.4546C9.39871 15.0637 9.16048 14.5389 9.16048 13.8582H8.96094H8.7614C8.7614 14.6461 9.044 15.288 9.61475 15.7617L9.74219 15.6082ZM8.96094 13.8582H9.16048C9.16048 12.9364 9.59589 12.1851 10.5068 11.596L10.3984 11.4285L10.2901 11.2609C9.28432 11.9114 8.7614 12.7799 8.7614 13.8582H8.96094ZM10.3984 11.4285L10.5075 11.5956C11.3249 11.0623 12.2936 10.7921 13.4219 10.7921V10.5925V10.393C12.2272 10.393 11.1803 10.6801 10.2894 11.2613L10.3984 11.4285ZM13.4219 10.5925V10.7921C14.5146 10.7921 15.4909 10.9707 16.3541 11.3241L16.4297 11.1394L16.5053 10.9547C15.5872 10.5789 14.5583 10.393 13.4219 10.393V10.5925ZM16.4297 11.1394L16.3566 11.3251C16.6656 11.4467 16.9888 11.5992 17.3263 11.7833L17.4219 11.6082L17.5174 11.433C17.1674 11.2421 16.8292 11.0822 16.5027 10.9537L16.4297 11.1394ZM17.4219 11.6082L17.2377 11.5313L16.7065 12.8048L16.8906 12.8816L17.0748 12.9584L17.606 11.685L17.4219 11.6082ZM16.8906 12.8816L16.9933 12.7105C16.2109 12.2411 15.2933 11.9393 14.2449 11.801L14.2188 11.9988L14.1926 12.1966C15.1963 12.3291 16.0599 12.6159 16.788 13.0527L16.8906 12.8816ZM14.2188 11.9988L14.2474 11.8013C13.9158 11.7532 13.5937 11.7289 13.2812 11.7289V11.9285V12.128C13.573 12.128 13.8759 12.1506 14.1901 12.1963L14.2188 11.9988ZM13.2812 11.9285V11.7289C12.5627 11.7289 11.9193 11.8668 11.3561 12.1484L11.4453 12.3269L11.5346 12.5054C12.0338 12.2557 12.6144 12.128 13.2812 12.128V11.9285ZM11.4453 12.3269L11.3555 12.1487C10.6891 12.4847 10.3161 12.9757 10.3161 13.6238H10.5156H10.7152C10.7152 13.1677 10.962 12.7941 11.5351 12.5051L11.4453 12.3269ZM10.5156 13.6238H10.3161C10.3161 13.9653 10.433 14.2662 10.6638 14.5168C10.8904 14.7629 11.2185 14.9519 11.6303 15.0937L11.6953 14.905L11.7603 14.7164C11.3857 14.5874 11.1239 14.4274 10.9573 14.2464C10.7948 14.0699 10.7152 13.8656 10.7152 13.6238H10.5156ZM11.6953 14.905L11.6289 15.0932C11.9954 15.2226 12.4075 15.3266 12.8642 15.4063L12.8984 15.2097L12.9327 15.0131C12.4935 14.9365 12.1035 14.8375 11.7617 14.7169L11.6953 14.905ZM12.8984 15.2097L12.8642 15.4063L14.2548 15.6485L14.2891 15.4519L14.3233 15.2553L12.9327 15.0131L12.8984 15.2097ZM14.2891 15.4519L14.2524 15.6481C15.4228 15.8665 16.2034 16.109 16.6227 16.3645L16.7266 16.1941L16.8304 16.0237C16.3435 15.7271 15.4991 15.4748 14.3257 15.2558L14.2891 15.4519ZM16.7266 16.1941L16.6227 16.3645C17.0572 16.6292 17.3643 16.9188 17.5571 17.2291L17.7266 17.1238L17.8961 17.0185C17.6617 16.6412 17.3022 16.3111 16.8304 16.0237L16.7266 16.1941ZM17.7266 17.1238L17.559 17.2321C17.75 17.5277 17.8551 17.9388 17.8551 18.4832H18.0547H18.2542C18.2542 17.8921 18.1406 17.397 17.8942 17.0155L17.7266 17.1238ZM18.0547 18.4832H17.8551C17.8551 19.0128 17.7305 19.4823 17.4846 19.897L17.6562 19.9988L17.8279 20.1006C18.1132 19.6194 18.2542 19.0785 18.2542 18.4832H18.0547ZM17.6562 19.9988L17.4846 19.897C17.2347 20.3184 16.9019 20.6662 16.484 20.9415L16.5938 21.1082L16.7035 21.2748C17.171 20.9668 17.5465 20.575 17.8279 20.1006L17.6562 19.9988ZM16.5938 21.1082L16.4828 20.9423C15.6593 21.4929 14.5994 21.7758 13.2891 21.7758V21.9753V22.1749C14.6558 22.1749 15.799 21.8796 16.7047 21.274L16.5938 21.1082ZM13.2891 21.9753V21.7758C12.069 21.7758 10.9248 21.5117 9.85384 20.9839L9.76562 21.1628L9.67741 21.3418C10.8044 21.8973 12.0091 22.1749 13.2891 22.1749V21.9753ZM9.76562 21.1628L9.85382 20.9839C9.50488 20.8119 9.18202 20.6151 8.88492 20.3935L8.76562 20.5535L8.64633 20.7134C8.96382 20.9502 9.30762 21.1596 9.67743 21.3418L9.76562 21.1628ZM8.76562 20.5535L8.93995 20.6506L9.62745 19.4162L9.45312 19.3191L9.2788 19.222L8.5913 20.4564L8.76562 20.5535ZM38.8047 10.7488V10.5492H38.6051V10.7488H38.8047ZM47.0625 10.7488H47.262V10.5492H47.0625V10.7488ZM47.0625 12.0613V12.2608H47.262V12.0613H47.0625ZM40.25 12.0613V11.8617H40.0505V12.0613H40.25ZM40.25 15.0457H40.0505V15.2452H40.25V15.0457ZM46.3203 15.0457H46.5199V14.8461H46.3203V15.0457ZM46.3203 16.3582V16.5577H46.5199V16.3582H46.3203ZM40.25 16.3582V16.1586H40.0505V16.3582H40.25ZM40.25 20.4988H40.0505V20.6983H40.25V20.4988ZM47.2188 20.4988H47.4183V20.2992H47.2188V20.4988ZM47.2188 21.8113V22.0108H47.4183V21.8113H47.2188ZM38.8047 21.8113H38.6051V22.0108H38.8047V21.8113ZM38.8047 10.7488V10.9483H47.0625V10.7488V10.5492H38.8047V10.7488ZM47.0625 10.7488H46.863V12.0613H47.0625H47.262V10.7488H47.0625ZM47.0625 12.0613V11.8617H40.25V12.0613V12.2608H47.0625V12.0613ZM40.25 12.0613H40.0505V15.0457H40.25H40.4495V12.0613H40.25ZM40.25 15.0457V15.2452H46.3203V15.0457V14.8461H40.25V15.0457ZM46.3203 15.0457H46.1208V16.3582H46.3203H46.5199V15.0457H46.3203ZM46.3203 16.3582V16.1586H40.25V16.3582V16.5577H46.3203V16.3582ZM40.25 16.3582H40.0505V20.4988H40.25H40.4495V16.3582H40.25ZM40.25 20.4988V20.6983H47.2188V20.4988V20.2992H40.25V20.4988ZM47.2188 20.4988H47.0192V21.8113H47.2188H47.4183V20.4988H47.2188ZM47.2188 21.8113V21.6117H38.8047V21.8113V22.0108H47.2188V21.8113ZM38.8047 21.8113H39.0042V10.7488H38.8047H38.6051V21.8113H38.8047ZM56.9219 17.5535L56.8456 17.3691L56.6486 17.4506L56.7429 17.6418L56.9219 17.5535ZM59.0234 21.8113V22.0108H59.3445L59.2024 21.723L59.0234 21.8113ZM57.3438 21.8113L57.1648 21.8995L57.2196 22.0108H57.3438V21.8113ZM55.4453 17.9597L55.6243 17.8715L55.5598 17.7406L55.4154 17.7624L55.4453 17.9597ZM50.9531 18.0769V17.8774H50.7536V18.0769H50.9531ZM50.9531 21.8113V22.0108H51.1527V21.8113H50.9531ZM49.5078 21.8113H49.3083V22.0108H49.5078V21.8113ZM49.5078 10.7488V10.5492H49.3083V10.7488H49.5078ZM57.7109 11.4207L57.6141 11.5951L57.6147 11.5955L57.7109 11.4207ZM56.6172 16.28L56.7165 16.4531L56.7172 16.4527L56.6172 16.28ZM55.25 12.1394L55.2277 12.3377L55.2294 12.3379L55.25 12.1394ZM50.9531 12.0613V11.8617H50.7536V12.0613H50.9531ZM50.9531 16.7644H50.7536V16.9639H50.9531V16.7644ZM59.1875 14.155H58.988C58.988 14.9441 58.8067 15.597 58.4551 16.1244C58.1035 16.6518 57.5717 17.0686 56.8456 17.3691L56.9219 17.5535L56.9982 17.7378C57.7825 17.4133 58.3835 16.9512 58.7871 16.3458C59.1907 15.7404 59.387 15.0065 59.387 14.155H59.1875ZM56.9219 17.5535L56.7429 17.6418L58.8445 21.8996L59.0234 21.8113L59.2024 21.723L57.1008 17.4651L56.9219 17.5535ZM59.0234 21.8113V21.6117H57.3438V21.8113V22.0108H59.0234V21.8113ZM57.3438 21.8113L57.5227 21.7231L55.6243 17.8715L55.4453 17.9597L55.2663 18.0479L57.1648 21.8995L57.3438 21.8113ZM55.4453 17.9597L55.4154 17.7624C54.9104 17.8389 54.3814 17.8774 53.8281 17.8774V18.0769V18.2764C54.3999 18.2764 54.9489 18.2367 55.4752 18.157L55.4453 17.9597ZM53.8281 18.0769V17.8774H50.9531V18.0769V18.2764H53.8281V18.0769ZM50.9531 18.0769H50.7536V21.8113H50.9531H51.1527V18.0769H50.9531ZM50.9531 21.8113V21.6117H49.5078V21.8113V22.0108H50.9531V21.8113ZM49.5078 21.8113H49.7074V10.7488H49.5078H49.3083V21.8113H49.5078ZM49.5078 10.7488V10.9483H54.0469V10.7488V10.5492H49.5078V10.7488ZM54.0469 10.7488V10.9483C55.6709 10.9483 56.8513 11.1719 57.6141 11.5951L57.7109 11.4207L57.8077 11.2462C56.956 10.7736 55.6937 10.5492 54.0469 10.5492V10.7488ZM57.7109 11.4207L57.6147 11.5955C58.5252 12.0965 58.988 12.9342 58.988 14.155H59.1875H59.387C59.387 12.8134 58.8654 11.8282 57.8071 11.2458L57.7109 11.4207ZM54.0234 16.7644V16.9639C55.2011 16.9639 56.1083 16.8023 56.7165 16.4531L56.6172 16.28L56.5178 16.107C56.0011 16.4036 55.1791 16.5649 54.0234 16.5649V16.7644ZM56.6172 16.28L56.7172 16.4527C57.4842 16.0086 57.8558 15.257 57.8558 14.2488H57.6562H57.4567C57.4567 15.1468 57.1355 15.7494 56.5172 16.1073L56.6172 16.28ZM57.6562 14.2488H57.8558C57.8558 13.5818 57.6377 13.0374 57.1862 12.6417C56.7419 12.2522 56.094 12.0265 55.2706 11.9409L55.25 12.1394L55.2294 12.3379C56.0102 12.419 56.5654 12.6282 56.9232 12.9418C57.2738 13.2492 57.4567 13.6762 57.4567 14.2488H57.6562ZM55.25 12.1394L55.2723 11.9411C54.801 11.8882 54.317 11.8617 53.8203 11.8617V12.0613V12.2608C54.3028 12.2608 54.7719 12.2865 55.2277 12.3377L55.25 12.1394ZM53.8203 12.0613V11.8617H50.9531V12.0613V12.2608H53.8203V12.0613ZM50.9531 12.0613H50.7536V16.7644H50.9531H51.1527V12.0613H50.9531ZM50.9531 16.7644V16.9639H54.0234V16.7644V16.5649H50.9531V16.7644ZM61.6172 10.7488V10.5492H61.4176V10.7488H61.6172ZM69.0938 10.7488H69.2933V10.5492H69.0938V10.7488ZM69.0938 12.0613V12.2608H69.2933V12.0613H69.0938ZM63.0625 12.0613V11.8617H62.863V12.0613H63.0625ZM63.0625 16.7644H62.863V16.9639H63.0625V16.7644ZM68.5078 16.7644H68.7074V16.5649H68.5078V16.7644ZM68.5078 18.0769V18.2764H68.7074V18.0769H68.5078ZM63.0625 18.0769V17.8774H62.863V18.0769H63.0625ZM63.0625 21.8113V22.0108H63.262V21.8113H63.0625ZM61.6172 21.8113H61.4176V22.0108H61.6172V21.8113ZM61.6172 10.7488V10.9483H69.0938V10.7488V10.5492H61.6172V10.7488ZM69.0938 10.7488H68.8942V12.0613H69.0938H69.2933V10.7488H69.0938ZM69.0938 12.0613V11.8617H63.0625V12.0613V12.2608H69.0938V12.0613ZM63.0625 12.0613H62.863V16.7644H63.0625H63.262V12.0613H63.0625ZM63.0625 16.7644V16.9639H68.5078V16.7644V16.5649H63.0625V16.7644ZM68.5078 16.7644H68.3083V18.0769H68.5078H68.7074V16.7644H68.5078ZM68.5078 18.0769V17.8774H63.0625V18.0769V18.2764H68.5078V18.0769ZM63.0625 18.0769H62.863V21.8113H63.0625H63.262V18.0769H63.0625ZM63.0625 21.8113V21.6117H61.6172V21.8113V22.0108H63.0625V21.8113ZM61.6172 21.8113H61.8167V10.7488H61.6172H61.4176V21.8113H61.6172ZM71.125 10.7488V10.5492H70.9255V10.7488H71.125ZM72.5703 10.7488H72.7699V10.5492H72.5703V10.7488ZM74.5781 20.3738L74.4978 20.5564L74.499 20.557L74.5781 20.3738ZM77.7969 20.3972L77.7209 20.2127L77.7201 20.213L77.7969 20.3972ZM78.8906 19.6082L78.738 19.4796L78.7373 19.4804L78.8906 19.6082ZM79.7266 10.7488V10.5492H79.527V10.7488H79.7266ZM81.1719 10.7488H81.3714V10.5492H81.1719V10.7488ZM78.3047 21.5925L78.3777 21.7782L78.3784 21.7779L78.3047 21.5925ZM73.9219 21.6082L73.848 21.7935L73.8499 21.7943L73.9219 21.6082ZM72.3828 20.5613L72.5305 20.4271L72.53 20.4266L72.3828 20.5613ZM71.125 10.7488V10.9483H72.5703V10.7488V10.5492H71.125V10.7488ZM72.5703 10.7488H72.3708V16.4753H72.5703H72.7699V10.7488H72.5703ZM72.5703 16.4753H72.3708C72.3708 18.5298 73.0594 19.924 74.4978 20.5564L74.5781 20.3738L74.6584 20.1911C73.4198 19.6465 72.7699 18.4417 72.7699 16.4753H72.5703ZM74.5781 20.3738L74.499 20.557C74.9878 20.768 75.5575 20.8702 76.2031 20.8702V20.6707V20.4711C75.5987 20.4711 75.0851 20.3754 74.6572 20.1906L74.5781 20.3738ZM76.2031 20.6707V20.8702C76.8465 20.8702 77.4054 20.7765 77.8736 20.5814L77.7969 20.3972L77.7201 20.213C77.3134 20.3825 76.8097 20.4711 76.2031 20.4711V20.6707ZM77.7969 20.3972L77.8729 20.5817C78.3434 20.388 78.7352 20.1063 79.0439 19.7359L78.8906 19.6082L78.7373 19.4804C78.4731 19.7975 78.1358 20.0419 77.7209 20.2127L77.7969 20.3972ZM78.8906 19.6082L79.0432 19.7367C79.6423 19.0257 79.9261 18.0061 79.9261 16.7097H79.7266H79.527C79.527 17.955 79.2536 18.8677 78.738 19.4796L78.8906 19.6082ZM79.7266 16.7097H79.9261V10.7488H79.7266H79.527V16.7097H79.7266ZM79.7266 10.7488V10.9483H81.1719V10.7488V10.5492H79.7266V10.7488ZM81.1719 10.7488H80.9723V16.4753H81.1719H81.3714V10.7488H81.1719ZM81.1719 16.4753H80.9723C80.9723 17.7784 80.7373 18.8311 80.281 19.6454C79.8267 20.4561 79.1465 21.0429 78.2309 21.4071L78.3047 21.5925L78.3784 21.7779C79.3743 21.3818 80.1277 20.7354 80.6292 19.8405C81.1286 18.9491 81.3714 17.8234 81.3714 16.4753H81.1719ZM78.3047 21.5925L78.2316 21.4068C77.624 21.6459 76.9152 21.768 76.1016 21.768V21.9675V22.1671C76.9546 22.1671 77.7146 22.0391 78.3777 21.7782L78.3047 21.5925ZM76.1016 21.9675V21.768C75.2868 21.768 74.5857 21.6508 73.9938 21.422L73.9219 21.6082L73.8499 21.7943C74.4977 22.0447 75.2496 22.1671 76.1016 22.1671V21.9675ZM73.9219 21.6082L73.9957 21.4228C73.407 21.1883 72.92 20.856 72.5305 20.4271L72.3828 20.5613L72.2351 20.6954C72.6686 21.1728 73.2076 21.5384 73.848 21.7935L73.9219 21.6082ZM72.3828 20.5613L72.53 20.4266C71.735 19.5574 71.3245 18.3276 71.3245 16.7097H71.125H70.9255C70.9255 18.3939 71.3536 19.7318 72.2356 20.696L72.3828 20.5613ZM71.125 16.7097H71.3245V10.7488H71.125H70.9255V16.7097H71.125ZM84.6094 10.7566V10.5571H84.4247L84.4104 10.7411L84.6094 10.7566ZM85.0391 10.7566L85.1865 10.6221L85.1271 10.5571H85.0391V10.7566ZM89.9219 16.1082L89.7745 16.2426L89.922 16.4043L90.0694 16.2425L89.9219 16.1082ZM94.7969 10.7566V10.5571H94.7087L94.6494 10.6222L94.7969 10.7566ZM95.2578 10.7566L95.4566 10.7397L95.4411 10.5571H95.2578V10.7566ZM96.1953 21.8113V22.0108H96.4125L96.3941 21.7944L96.1953 21.8113ZM94.7812 21.8113L94.5824 21.8283L94.598 22.0108H94.7812V21.8113ZM94.0703 13.491L94.2691 13.474L94.23 13.0163L93.9222 13.3573L94.0703 13.491ZM89.9375 18.0691V18.2686H90.0262L90.0856 18.2028L89.9375 18.0691ZM89.7812 18.0691L89.6321 18.2017L89.6917 18.2686H89.7812V18.0691ZM85.7734 13.5613L85.9226 13.4287L85.61 13.0771L85.5745 13.5462L85.7734 13.5613ZM85.1484 21.8113V22.0108H85.3334L85.3474 21.8264L85.1484 21.8113ZM83.75 21.8113L83.5511 21.7958L83.5343 22.0108H83.75V21.8113ZM84.6094 10.7566V10.9561H85.0391V10.7566V10.5571H84.6094V10.7566ZM85.0391 10.7566L84.8917 10.8911L89.7745 16.2426L89.9219 16.1082L90.0693 15.9737L85.1865 10.6221L85.0391 10.7566ZM89.9219 16.1082L90.0694 16.2425L94.9444 10.891L94.7969 10.7566L94.6494 10.6222L89.7744 15.9738L89.9219 16.1082ZM94.7969 10.7566V10.9561H95.2578V10.7566V10.5571H94.7969V10.7566ZM95.2578 10.7566L95.059 10.7735L95.9965 21.8281L96.1953 21.8113L96.3941 21.7944L95.4566 10.7397L95.2578 10.7566ZM96.1953 21.8113V21.6117H94.7812V21.8113V22.0108H96.1953V21.8113ZM94.7812 21.8113L94.9801 21.7943L94.2691 13.474L94.0703 13.491L93.8715 13.508L94.5824 21.8283L94.7812 21.8113ZM94.0703 13.491L93.9222 13.3573L89.7894 17.9354L89.9375 18.0691L90.0856 18.2028L94.2184 13.6247L94.0703 13.491ZM89.9375 18.0691V17.8696H89.7812V18.0691V18.2686H89.9375V18.0691ZM89.7812 18.0691L89.9304 17.9365L85.9226 13.4287L85.7734 13.5613L85.6243 13.6939L89.6321 18.2017L89.7812 18.0691ZM85.7734 13.5613L85.5745 13.5462L84.9495 21.7962L85.1484 21.8113L85.3474 21.8264L85.9724 13.5764L85.7734 13.5613ZM85.1484 21.8113V21.6117H83.75V21.8113V22.0108H85.1484V21.8113ZM83.75 21.8113L83.9489 21.8267L84.8083 10.7721L84.6094 10.7566L84.4104 10.7411L83.5511 21.7958L83.75 21.8113ZM99.0234 10.7488V10.5492H98.8239V10.7488H99.0234ZM107.281 10.7488H107.481V10.5492H107.281V10.7488ZM107.281 12.0613V12.2608H107.481V12.0613H107.281ZM100.469 12.0613V11.8617H100.269V12.0613H100.469ZM100.469 15.0457H100.269V15.2452H100.469V15.0457ZM106.539 15.0457H106.739V14.8461H106.539V15.0457ZM106.539 16.3582V16.5577H106.739V16.3582H106.539ZM100.469 16.3582V16.1586H100.269V16.3582H100.469ZM100.469 20.4988H100.269V20.6983H100.469V20.4988ZM107.438 20.4988H107.637V20.2992H107.438V20.4988ZM107.438 21.8113V22.0108H107.637V21.8113H107.438ZM99.0234 21.8113H98.8239V22.0108H99.0234V21.8113ZM99.0234 10.7488V10.9483H107.281V10.7488V10.5492H99.0234V10.7488ZM107.281 10.7488H107.082V12.0613H107.281H107.481V10.7488H107.281ZM107.281 12.0613V11.8617H100.469V12.0613V12.2608H107.281V12.0613ZM100.469 12.0613H100.269V15.0457H100.469H100.668V12.0613H100.469ZM100.469 15.0457V15.2452H106.539V15.0457V14.8461H100.469V15.0457ZM106.539 15.0457H106.34V16.3582H106.539H106.739V15.0457H106.539ZM106.539 16.3582V16.1586H100.469V16.3582V16.5577H106.539V16.3582ZM100.469 16.3582H100.269V20.4988H100.469H100.668V16.3582H100.469ZM100.469 20.4988V20.6983H107.438V20.4988V20.2992H100.469V20.4988ZM107.438 20.4988H107.238V21.8113H107.438H107.637V20.4988H107.438ZM107.438 21.8113V21.6117H99.0234V21.8113V22.0108H107.438V21.8113ZM99.0234 21.8113H99.223V10.7488H99.0234H98.8239V21.8113H99.0234Z" fill="black" mask="url(#path-1-outside-1_1232_180779)"/>
<path d="M20.665 7.2998H36.335C36.5365 7.29986 36.7001 7.46346 36.7002 7.66504V25.335C36.7001 25.5365 36.5365 25.7001 36.335 25.7002H20.665C20.4635 25.7001 20.2999 25.5365 20.2998 25.335V7.66504C20.2999 7.46346 20.4635 7.29986 20.665 7.2998Z" stroke="black" stroke-width="0.6"/>
<path d="M21.6865 8.2998H35.3145C35.5203 8.2998 35.6857 8.47005 35.6797 8.67578L35.2842 22.0547C35.257 22.9711 34.5057 23.7002 33.5889 23.7002H23.4453C22.5303 23.7 21.7803 22.9732 21.751 22.0586L21.3223 8.67676C21.3157 8.47074 21.4804 8.29996 21.6865 8.2998Z" stroke="black" stroke-width="0.6"/>
<rect x="23.3" y="0.3" width="10.4" height="3.4" rx="0.365138" stroke="black" stroke-width="0.6"/>
<mask id="path-6-inside-2_1232_180779" fill="white">
<rect x="25" y="4" width="7" height="2" rx="0.53211"/>
</mask>
<rect x="25" y="4" width="7" height="2" rx="0.53211" stroke="black" stroke-width="1.2" mask="url(#path-6-inside-2_1232_180779)"/>
<mask id="path-7-outside-3_1232_180779" maskUnits="userSpaceOnUse" x="23" y="10.9395" width="11" height="10" fill="black">
<rect fill="white" x="23" y="10.9395" width="11" height="10"/>
<path d="M24.641 11.6484H24.9633L28.6254 15.6621L32.2817 11.6484H32.6274L33.3305 19.9395H32.27L31.7368 13.6992L28.6371 17.1328H28.52L25.5141 13.752L25.0453 19.9395H23.9965L24.641 11.6484Z"/>
</mask>
<path d="M24.641 11.6484H24.9633L28.6254 15.6621L32.2817 11.6484H32.6274L33.3305 19.9395H32.27L31.7368 13.6992L28.6371 17.1328H28.52L25.5141 13.752L25.0453 19.9395H23.9965L24.641 11.6484Z" fill="black"/>
<path d="M24.641 11.6484V11.3159H24.3333L24.3095 11.6227L24.641 11.6484ZM24.9633 11.6484L25.209 11.4243L25.1101 11.3159H24.9633V11.6484ZM28.6254 15.6621L28.3797 15.8863L28.6256 16.1557L28.8713 15.8861L28.6254 15.6621ZM32.2817 11.6484V11.3159H32.1348L32.0358 11.4245L32.2817 11.6484ZM32.6274 11.6484L32.9588 11.6203L32.9329 11.3159H32.6274V11.6484ZM33.3305 19.9395V20.272H33.6925L33.6619 19.9114L33.3305 19.9395ZM32.27 19.9395L31.9386 19.9678L31.9646 20.272H32.27V19.9395ZM31.7368 13.6992L32.0681 13.6709L32.0029 12.9081L31.4899 13.4764L31.7368 13.6992ZM28.6371 17.1328V17.4654H28.785L28.884 17.3557L28.6371 17.1328ZM28.52 17.1328L28.2714 17.3538L28.3706 17.4654H28.52V17.1328ZM25.5141 13.752L25.7626 13.531L25.2417 12.9451L25.1825 13.7268L25.5141 13.752ZM25.0453 19.9395V20.272H25.3537L25.377 19.9646L25.0453 19.9395ZM23.9965 19.9395L23.6649 19.9137L23.6371 20.272H23.9965V19.9395ZM24.641 11.6484V11.981H24.9633V11.6484V11.3159H24.641V11.6484ZM24.9633 11.6484L24.7176 11.8726L28.3797 15.8863L28.6254 15.6621L28.8711 15.438L25.209 11.4243L24.9633 11.6484ZM28.6254 15.6621L28.8713 15.8861L32.5275 11.8724L32.2817 11.6484L32.0358 11.4245L28.3796 15.4381L28.6254 15.6621ZM32.2817 11.6484V11.981H32.6274V11.6484V11.3159H32.2817V11.6484ZM32.6274 11.6484L32.296 11.6765L32.9991 19.9676L33.3305 19.9395L33.6619 19.9114L32.9588 11.6203L32.6274 11.6484ZM33.3305 19.9395V19.6069H32.27V19.9395V20.272H33.3305V19.9395ZM32.27 19.9395L32.6013 19.9111L32.0681 13.6709L31.7368 13.6992L31.4054 13.7275L31.9386 19.9678L32.27 19.9395ZM31.7368 13.6992L31.4899 13.4764L28.3903 16.91L28.6371 17.1328L28.884 17.3557L31.9836 13.9221L31.7368 13.6992ZM28.6371 17.1328V16.8002H28.52V17.1328V17.4654H28.6371V17.1328ZM28.52 17.1328L28.7685 16.9118L25.7626 13.531L25.5141 13.752L25.2656 13.9729L28.2714 17.3538L28.52 17.1328ZM25.5141 13.752L25.1825 13.7268L24.7137 19.9143L25.0453 19.9395L25.377 19.9646L25.8457 13.7771L25.5141 13.752ZM25.0453 19.9395V19.6069H23.9965V19.9395V20.272H25.0453V19.9395ZM23.9965 19.9395L24.3281 19.9652L24.9726 11.6742L24.641 11.6484L24.3095 11.6227L23.6649 19.9137L23.9965 19.9395Z" fill="black" mask="url(#path-7-outside-3_1232_180779)"/>
</svg>
